<svg width="229" height="136" viewBox="0 0 229 136" fill="none" xmlns="http://www.w3.org/2000/svg">
<g id="undraw_hire_re_gn5j 1" clip-path="url(#clip0_48_7)" filter="url(#filter0_d_48_7)">
<path id="Vector" d="M98.2643 81.7746H9.3343C8.13546 81.7729 6.9861 81.1466 6.13839 80.0333C5.29068 78.92 4.81385 77.4105 4.8125 75.836V4.5225C4.81351 3.32349 5.17662 2.17397 5.82215 1.32613C6.46769 0.478291 7.34294 0.00136881 8.25589 0H99.2916C100.218 0.0013705 101.106 0.48536 101.761 1.34578C102.417 2.2062 102.785 3.37278 102.786 4.58959V75.836C102.785 77.4105 102.308 78.92 101.46 80.0333C100.613 81.1466 99.4632 81.7729 98.2643 81.7746Z" fill="white"/>
<path id="Vector_2" d="M98.2643 81.7746H9.3343C8.13546 81.7729 6.9861 81.1466 6.13839 80.0333C5.29068 78.92 4.81385 77.4105 4.8125 75.836V4.5225C4.81351 3.32349 5.17662 2.17397 5.82215 1.32613C6.46769 0.478291 7.34294 0.00136881 8.25589 0H99.2916C100.218 0.0013705 101.106 0.48536 101.761 1.34578C102.417 2.2062 102.785 3.37278 102.786 4.58959V75.836C102.785 77.4105 102.308 78.92 101.46 80.0333C100.613 81.1466 99.4632 81.7729 98.2643 81.7746ZM8.25589 1.28404C7.60216 1.28504 6.97542 1.62657 6.51318 2.23368C6.05093 2.8408 5.79092 3.66393 5.79019 4.5225V75.836C5.79126 77.07 6.165 78.2531 6.82942 79.1257C7.49383 79.9983 8.39467 80.4892 9.3343 80.4906H98.2643C99.2039 80.4892 100.105 79.9983 100.769 79.1257C101.434 78.2531 101.807 77.07 101.808 75.836V4.58959C101.808 3.71321 101.542 2.873 101.07 2.2533C100.599 1.6336 99.9589 1.28502 99.2916 1.28404H8.25589Z" fill="#E6E6E6"/>
<path id="Vector_3" d="M45.4138 63.7191H18.7669C18.115 63.7179 17.4855 63.406 16.9954 62.8415C16.5052 62.277 16.1876 61.4981 16.1015 60.6493C16.0853 60.4965 16.0776 60.3423 16.0783 60.188V21.5866C16.0791 20.6505 16.3626 19.7529 16.8667 19.0909C17.3707 18.429 18.0541 18.0566 18.7669 18.0555H45.4138C46.1266 18.0566 46.81 18.429 47.3141 19.0909C47.8181 19.7529 48.1016 20.6505 48.1024 21.5866V60.188C48.1016 61.1242 47.8181 62.0217 47.3141 62.6837C46.81 63.3457 46.1266 63.7181 45.4138 63.7191ZM18.7669 19.9816C18.4429 19.9821 18.1323 20.1513 17.9032 20.4522C17.6741 20.7531 17.5452 21.1611 17.5448 21.5866V60.188C17.5443 60.254 17.5474 60.32 17.5541 60.3854C17.5916 60.7735 17.7353 61.1304 17.9585 61.3895C18.1817 61.6485 18.4691 61.792 18.7669 61.7931H45.4138C45.7378 61.7926 46.0484 61.6233 46.2775 61.3224C46.5067 61.0215 46.6355 60.6136 46.6359 60.188V21.5866C46.6355 21.1611 46.5067 20.7531 46.2775 20.4522C46.0484 20.1513 45.7378 19.9821 45.4138 19.9816H18.7669Z" fill="#E6E6E6"/>
<path id="Vector_4" d="M89.565 51.1676H57.3013C56.7827 51.1676 56.2854 50.8971 55.9187 50.4155C55.552 49.9339 55.3459 49.2807 55.3459 48.5996C55.3459 47.9185 55.552 47.2653 55.9187 46.7837C56.2854 46.3021 56.7827 46.0315 57.3013 46.0315H89.565C90.0836 46.0315 90.5809 46.3021 90.9476 46.7837C91.3144 47.2653 91.5204 47.9185 91.5204 48.5996C91.5204 49.2807 91.3144 49.9339 90.9476 50.4155C90.5809 50.8971 90.0836 51.1676 89.565 51.1676Z" fill="#E6E6E6"/>
<path id="Vector_5" d="M74.8997 40.2532H57.3013C56.7827 40.2532 56.2854 39.9827 55.9187 39.501C55.552 39.0194 55.3459 38.3662 55.3459 37.6851C55.3459 37.004 55.552 36.3508 55.9187 35.8692C56.2854 35.3876 56.7827 35.1171 57.3013 35.1171H74.8997C75.4183 35.1171 75.9156 35.3876 76.2823 35.8692C76.649 36.3508 76.8551 37.004 76.8551 37.6851C76.8551 38.3662 76.649 39.0194 76.2823 39.501C75.9156 39.9827 75.4183 40.2532 74.8997 40.2532Z" fill="#E6E6E6"/>
<path id="Vector_6" d="M40.8764 39.8264C40.8764 45.4996 36.8821 44.6415 31.955 44.6415C27.0278 44.6415 23.0336 45.4996 23.0336 39.8264C23.0336 34.1532 24.9847 24.0969 31.955 24.0969C39.1654 24.0969 40.8764 34.1532 40.8764 39.8264Z" fill="#2F2E41"/>
<path id="Vector_7" d="M41.2372 49.3744C41.0651 48.7221 40.7221 48.1714 40.2693 47.8207C40.1819 47.7502 40.0904 47.689 39.9955 47.6377C39.5985 47.4208 39.1619 47.3606 38.7392 47.4644C38.3165 47.5682 37.9259 47.8314 37.6153 48.222C37.3047 48.6126 37.0875 49.1136 36.9902 49.6637C36.8928 50.2138 36.9197 50.7893 37.0674 51.3197L40.6212 61.929H45.3019L41.2372 49.3744Z" fill="#3F3D56"/>
<path id="Vector_8" d="M25.7287 49.9523C25.4478 49.774 25.1414 49.6757 24.8295 49.6639C24.5177 49.6521 24.2074 49.727 23.9192 49.8837C23.6309 50.0404 23.3711 50.2754 23.1569 50.5732C22.9426 50.8711 22.7787 51.225 22.6759 51.6119L19.3665 61.836C19.5359 61.8982 19.7111 61.9295 19.887 61.9291H24.0398L26.8457 53.5572C27.0328 52.8814 27.0222 52.1383 26.8158 51.4722C26.6094 50.8061 26.222 50.2644 25.7287 49.9523Z" fill="#3F3D56"/>
<path id="Vector_9" d="M31.9251 44.632C35.2406 44.632 37.9284 41.1021 37.9284 36.7477C37.9284 32.3933 35.2406 28.8634 31.9251 28.8634C28.6096 28.8634 25.9219 32.3933 25.9219 36.7477C25.9219 41.1021 28.6096 44.632 31.9251 44.632Z" fill="#FFB8B8"/>
<path id="Vector_10" d="M40.3744 47.9459C40.3403 47.9041 40.306 47.8592 40.2694 47.8207C39.8509 47.3251 39.3556 46.9546 38.8176 46.7346C38.2796 46.5146 37.7117 46.4503 37.153 46.5463L26.0904 48.3856C25.0771 48.5503 24.1524 49.227 23.5126 50.2722C22.8728 51.3174 22.5683 52.6488 22.6636 53.984C22.8152 56.2247 23.0596 59.0528 23.4507 61.929H40.9269L41.5697 52.119C41.6214 51.3502 41.5408 50.576 41.3339 49.8536C41.127 49.1313 40.7991 48.4793 40.3744 47.9459Z" fill="#3F3D56"/>
<path id="Vector_11" d="M24.989 35.9743H27.3634L28.4109 32.1222L28.6204 35.9743H29.7552L30.3663 33.7272L30.4885 35.9743H38.9211C38.9211 33.7607 38.2515 31.6378 37.0597 30.0726C35.8679 28.5074 34.2515 27.6281 32.5661 27.6281H31.344C29.6585 27.6281 28.0421 28.5074 26.8503 30.0726C25.6586 31.6378 24.989 33.7607 24.989 35.9743Z" fill="#2F2E41"/>
<path id="Vector_12" d="M126.354 75.836V4.58959C126.355 3.37278 126.723 2.2062 127.378 1.34578C128.033 0.48536 128.922 0.0013705 129.848 0H220.884C221.797 0.00136881 222.672 0.478291 223.318 1.32613C223.963 2.17397 224.326 3.32349 224.327 4.5225V75.836C224.326 77.4105 223.849 78.92 223.001 80.0333C222.154 81.1466 221.004 81.7729 219.805 81.7746H130.875C129.677 81.7729 128.527 81.1466 127.68 80.0333C126.832 78.92 126.355 77.4105 126.354 75.836Z" fill="white"/>
<path id="Vector_13" d="M126.354 75.836V4.58959C126.355 3.37278 126.723 2.2062 127.378 1.34578C128.033 0.48536 128.922 0.0013705 129.848 0H220.884C221.797 0.00136881 222.672 0.478291 223.318 1.32613C223.963 2.17397 224.326 3.32349 224.327 4.5225V75.836C224.326 77.4105 223.849 78.92 223.001 80.0333C222.154 81.1466 221.004 81.7729 219.805 81.7746H130.875C129.677 81.7729 128.527 81.1466 127.68 80.0333C126.832 78.92 126.355 77.4105 126.354 75.836ZM129.848 1.28404C129.181 1.28502 128.541 1.6336 128.069 2.2533C127.597 2.873 127.332 3.71321 127.331 4.58959V75.836C127.332 77.07 127.706 78.2531 128.371 79.1257C129.035 79.9983 129.936 80.4892 130.875 80.4906H219.805C220.745 80.4892 221.646 79.9983 222.31 79.1257C222.975 78.2531 223.348 77.07 223.35 75.836V4.5225C223.349 3.66393 223.089 2.8408 222.627 2.23368C222.164 1.62657 221.538 1.28504 220.884 1.28404H129.848Z" fill="#E6E6E6"/>
<path id="Vector_14" d="M181.037 60.188V21.5866C181.038 20.6505 181.322 19.7529 181.826 19.0909C182.33 18.429 183.013 18.0566 183.726 18.0555H210.373C211.086 18.0566 211.769 18.429 212.273 19.0909C212.777 19.7529 213.061 20.6505 213.061 21.5866V60.188C213.062 60.3423 213.054 60.4965 213.038 60.6493C212.952 61.4981 212.635 62.277 212.144 62.8415C211.654 63.406 211.025 63.7179 210.373 63.7191H183.726C183.013 63.7181 182.33 63.3457 181.826 62.6837C181.322 62.0217 181.038 61.1242 181.037 60.188ZM183.726 19.9816C183.402 19.9821 183.091 20.1513 182.862 20.4522C182.633 20.7531 182.504 21.1611 182.504 21.5866V60.188C182.504 60.6136 182.633 61.0215 182.862 61.3224C183.091 61.6233 183.402 61.7926 183.726 61.7931H210.373C210.671 61.792 210.958 61.6485 211.181 61.3895C211.405 61.1304 211.548 60.7735 211.586 60.3854C211.592 60.32 211.595 60.254 211.595 60.188V21.5866C211.595 21.1611 211.466 20.7531 211.237 20.4522C211.008 20.1513 210.697 19.9821 210.373 19.9816H183.726Z" fill="#E6E6E6"/>
<path id="Vector_15" d="M137.619 48.5996C137.62 47.9187 137.826 47.266 138.193 46.7845C138.559 46.3031 139.056 46.0323 139.575 46.0315H171.838C172.357 46.0315 172.854 46.3021 173.221 46.7837C173.588 47.2653 173.794 47.9185 173.794 48.5996C173.794 49.2807 173.588 49.9339 173.221 50.4155C172.854 50.8971 172.357 51.1676 171.838 51.1676H139.575C139.056 51.1669 138.559 50.8961 138.193 50.4146C137.826 49.9332 137.62 49.2804 137.619 48.5996Z" fill="#E6E6E6"/>
<path id="Vector_16" d="M137.619 37.6851C137.62 37.0043 137.826 36.3515 138.193 35.8701C138.559 35.3887 139.056 35.1178 139.575 35.1171H157.173C157.692 35.1171 158.189 35.3876 158.556 35.8692C158.922 36.3508 159.128 37.004 159.128 37.6851C159.128 38.3662 158.922 39.0194 158.556 39.501C158.189 39.9827 157.692 40.2532 157.173 40.2532H139.575C139.056 40.2524 138.559 39.9816 138.193 39.5002C137.826 39.0187 137.62 38.366 137.619 37.6851Z" fill="#E6E6E6"/>
<path id="Vector_17" d="M190.464 33.0562C192.178 37.4809 193.528 42.0445 197.308 42.0445C199.123 42.0445 200.864 41.0975 202.147 39.4119C203.431 37.7263 204.152 35.4401 204.152 33.0562C204.152 30.6724 203.431 28.3862 202.147 26.7006C200.864 25.0149 199.123 24.068 197.308 24.068C193.467 24.0048 187.275 24.8206 190.464 33.0562Z" fill="#2F2E41"/>
<path id="Vector_18" d="M196.971 42.2196C200.287 42.2196 202.974 38.6896 202.974 34.3352C202.974 29.9809 200.287 26.4509 196.971 26.4509C193.656 26.4509 190.968 29.9809 190.968 34.3352C190.968 38.6896 193.656 42.2196 196.971 42.2196Z" fill="#A0616A"/>
<path id="Vector_19" d="M205.167 48.7068C204.78 48.1531 204.359 47.642 203.908 47.1788C201.938 45.1504 199.468 44.1449 196.969 44.3539C196.869 44.3603 196.769 44.3699 196.669 44.3828C195.222 44.5347 193.816 45.0896 192.545 46.0106C191.274 46.9317 190.166 48.1976 189.297 49.7244C188.414 51.2744 187.793 53.0542 187.476 54.9448C187.159 56.8354 187.153 58.793 187.459 60.6868C187.525 61.0881 187.583 61.4926 187.64 61.897H207.54L207.77 59.8747C208 57.876 207.885 55.8351 207.435 53.9023C206.984 51.9695 206.209 50.194 205.167 48.7068Z" fill="#3F3D56"/>
<path id="Vector_20" d="M208.215 50.8157C208.075 49.7609 207.657 48.8041 207.035 48.1119C206.413 47.4198 205.626 47.0362 204.81 47.0278C204.779 47.0278 204.744 47.031 204.713 47.031C204.441 47.0392 204.171 47.0887 203.908 47.1787C203.467 47.3329 203.053 47.6001 202.69 47.9651C202.327 48.33 202.022 48.7855 201.794 49.3054C201.565 49.8253 201.417 50.3993 201.358 50.9945C201.299 51.5898 201.33 52.1945 201.45 52.7739L203.329 61.897H209.655L208.215 50.8157Z" fill="#3F3D56"/>
<path id="Vector_21" d="M194.295 48.4242C194.057 47.8092 193.715 47.2735 193.296 46.8577C192.999 46.5632 192.667 46.3354 192.313 46.1836C192.168 46.1187 192.021 46.0672 191.871 46.0295C191.053 45.8263 190.207 46.0136 189.486 46.5575C188.764 47.1014 188.214 47.9661 187.935 48.9956L184.494 61.897H191.025L194.356 52.4079C194.578 51.7819 194.688 51.0973 194.678 50.4068C194.667 49.7162 194.536 49.038 194.295 48.4242Z" fill="#3F3D56"/>
<path id="Vector_22" d="M190.601 29.8794C191.973 31.1211 193.601 31.782 195.267 31.7733C194.673 32.3145 193.996 32.6801 193.284 32.8448C195.499 33.4689 197.788 33.4858 200.009 32.8944C200.502 32.7905 200.979 32.5757 201.417 32.2594C201.635 32.0993 201.825 31.8807 201.975 31.6177C202.124 31.3547 202.23 31.0533 202.286 30.7331C202.433 29.6261 201.776 28.6203 201.094 27.9425C200.049 26.9206 198.844 26.2165 197.566 25.8812C196.288 25.5459 194.97 25.5877 193.706 26.0037C192.881 26.2839 192.054 26.7572 191.518 27.6276C190.982 28.498 190.824 29.8399 191.334 30.7361L190.601 29.8794Z" fill="#2F2E41"/>
<path id="Vector_23" d="M159.035 128H70.1048C68.906 127.998 67.7566 127.372 66.9089 126.259C66.0612 125.145 65.5844 123.636 65.583 122.061V50.7478C65.584 49.5488 65.9471 48.3993 66.5927 47.5515C67.2382 46.7036 68.1135 46.2267 69.0264 46.2253H160.062C160.989 46.2267 161.877 46.7107 162.532 47.5711C163.187 48.4315 163.556 49.5981 163.557 50.8149V122.061C163.555 123.636 163.078 125.145 162.231 126.259C161.383 127.372 160.234 127.998 159.035 128Z" fill="white"/>
<path id="Vector_24" d="M159.035 128H70.1048C68.906 127.998 67.7566 127.372 66.9089 126.259C66.0612 125.145 65.5844 123.636 65.583 122.061V50.7478C65.584 49.5488 65.9471 48.3993 66.5927 47.5515C67.2382 46.7036 68.1135 46.2267 69.0264 46.2253H160.062C160.989 46.2267 161.877 46.7107 162.532 47.5711C163.187 48.4315 163.556 49.5981 163.557 50.8149V122.061C163.555 123.636 163.078 125.145 162.231 126.259C161.383 127.372 160.234 127.998 159.035 128ZM69.0264 47.5094C68.3727 47.5104 67.7459 47.8519 67.2837 48.459C66.8214 49.0661 66.5614 49.8893 66.5607 50.7478V122.061C66.5618 123.295 66.9355 124.478 67.5999 125.351C68.2643 126.224 69.1652 126.715 70.1048 126.716H159.035C159.974 126.715 160.875 126.224 161.54 125.351C162.204 124.478 162.578 123.295 162.579 122.061V50.8149C162.578 49.9386 162.313 49.0983 161.841 48.4786C161.369 47.8589 160.729 47.5104 160.062 47.5094H69.0264Z" fill="#3F3D56"/>
<path id="Vector_25" d="M106.184 109.944H79.5374C78.8855 109.943 78.256 109.631 77.7659 109.067C77.2757 108.502 76.9581 107.723 76.872 106.875C76.8558 106.722 76.8481 106.568 76.8488 106.413V67.812C76.8496 66.8758 77.1331 65.9783 77.6372 65.3163C78.1412 64.6543 78.8246 64.2819 79.5374 64.2809H106.184C106.897 64.2819 107.581 64.6543 108.085 65.3163C108.589 65.9783 108.872 66.8758 108.873 67.812V106.413C108.872 107.35 108.589 108.247 108.085 108.909C107.581 109.571 106.897 109.943 106.184 109.944ZM79.5374 66.2069C79.2134 66.2074 78.9028 66.3767 78.6737 66.6776C78.4446 66.9785 78.3157 67.3865 78.3153 67.812V106.413C78.3148 106.479 78.3179 106.545 78.3246 106.611C78.3621 106.999 78.5058 107.356 78.729 107.615C78.9522 107.874 79.2396 108.017 79.5374 108.018H106.184C106.508 108.018 106.819 107.849 107.048 107.548C107.277 107.247 107.406 106.839 107.406 106.413V67.812C107.406 67.3865 107.277 66.9785 107.048 66.6776C106.819 66.3767 106.508 66.2074 106.184 66.2069H79.5374Z" fill="#E6E6E6"/>
<path id="Vector_26" d="M92.474 71.3379C90.7393 70.278 88.6095 69.9306 86.8445 70.9154C85.0794 71.9002 83.8761 74.4245 84.4468 76.6585C84.7056 77.6714 85.295 78.6675 85.0653 79.6905C84.8886 80.4779 84.2721 80.9977 83.6666 81.3673C83.0612 81.737 82.3988 82.0477 81.9609 82.6711C81.5231 83.2946 81.4317 84.3678 81.9787 84.8512C82.159 85.0105 82.3842 85.0861 82.5589 85.2539C82.7079 85.4128 82.8154 85.6288 82.8664 85.8718C82.9174 86.1147 82.9094 86.3725 82.8435 86.6093C82.6979 87.0856 82.4572 87.5015 82.1467 87.8133C81.5258 88.5166 80.7051 89.3215 80.8979 90.3199C80.9695 90.5868 81.0889 90.827 81.2463 91.0202C81.4036 91.2135 81.594 91.354 81.8015 91.4299C82.2325 91.5932 82.6796 91.6707 83.128 91.6599L101.451 92.4179C102.056 92.4776 102.664 92.433 103.26 92.2852C103.55 92.2158 103.826 92.0687 104.07 91.853C104.315 91.6373 104.523 91.3577 104.681 91.0317C105.032 90.1787 104.802 89.1279 104.368 88.3314C103.935 87.5349 103.322 86.9066 102.815 86.1752C102.308 85.4437 101.894 84.5307 101.983 83.5854C102.055 82.8287 102.435 82.1747 102.707 81.4871C102.98 80.7995 103.139 79.9403 102.785 79.3078C102.287 78.4165 101.092 78.4971 100.526 77.6665C100.099 77.0397 100.181 76.1374 100.139 75.3292C100.037 73.3849 99.0119 71.5488 97.553 70.6962C96.8111 70.2779 96.0041 70.0973 95.1986 70.1694C94.3931 70.2414 93.6122 70.564 92.9204 71.1105L92.474 71.3379Z" fill="#2F2E41"/>
<path id="Vector_27" d="M93.1519 92.2315C96.4674 92.2315 99.1552 88.7016 99.1552 84.3472C99.1552 79.9928 96.4674 76.4629 93.1519 76.4629C89.8364 76.4629 87.1487 79.9928 87.1487 84.3472C87.1487 88.7016 89.8364 92.2315 93.1519 92.2315Z" fill="#A0616A"/>
<path id="Vector_28" d="M101.034 102.413C101.028 101.032 100.736 99.6776 100.19 98.4961C99.6446 97.3146 98.8648 96.3497 97.9343 95.7044C97.8587 95.6498 97.7804 95.6017 97.7022 95.5535C97.0266 95.133 96.2953 94.8888 95.5488 94.8345L89.8343 94.4139C89.0272 94.3534 88.2194 94.5164 87.4634 94.8922C87.2793 94.9823 87.099 95.0852 86.9232 95.2004C86.3709 95.5578 85.8658 96.0292 85.4273 96.5968C84.8498 97.3456 84.3979 98.2448 84.1007 99.2366C83.8035 100.228 83.6676 101.291 83.7017 102.356L83.8044 105.537L84.523 107.986H100.501C100.699 107.671 100.871 107.329 101.014 106.965C101.285 106.26 101.428 105.482 101.431 104.692C101.435 103.903 101.298 103.123 101.034 102.413Z" fill="#3F3D56"/>
<path id="Vector_29" d="M100.642 98.1954C100.382 97.4525 99.973 96.8159 99.4595 96.3528C99.0889 96.0194 98.6733 95.7819 98.2349 95.653C98.0594 95.6024 97.8814 95.5691 97.7021 95.5535C97.3492 95.522 96.9947 95.562 96.651 95.6723C96.138 95.8399 95.6607 96.1585 95.2551 96.604C94.8495 97.0494 94.5264 97.6101 94.31 98.2437C94.0937 98.8772 93.9898 99.567 94.0062 100.261C94.0226 100.955 94.1589 101.635 94.4048 102.25L96.6022 107.713L96.7121 107.986H104.091L100.642 98.1954Z" fill="#3F3D56"/>
<path id="Vector_30" d="M88.5656 95.3481C88.2199 95.1171 87.8474 94.9631 87.4633 94.8922C87.1774 94.8388 86.8875 94.8334 86.6006 94.8762C85.8704 94.9848 85.185 95.3937 84.6423 96.0446C84.0997 96.6956 83.7277 97.5551 83.5794 98.5004L82.0909 107.986H87.913L89.0007 107.402L90.3548 100.577C90.5518 99.5684 90.4821 98.5016 90.157 97.5515C89.8319 96.6015 89.2708 95.8246 88.5656 95.3481Z" fill="#3F3D56"/>
<path id="Vector_31" d="M87.0103 83.2263C88.9062 83.0264 90.4802 80.539 90.2831 78.0546C90.2609 79.0786 90.526 80.0776 91.0281 80.8616C91.5302 81.6456 92.2342 82.1599 93.0062 82.3066C93.8759 82.4324 94.8292 82.0869 95.5862 82.6631C96.4245 83.3012 96.6928 84.851 97.5662 85.4022C98.4101 85.9347 99.4819 85.2084 99.8988 84.1074C100.316 83.0065 100.213 81.6837 99.9371 80.5089C99.5431 78.8335 98.8256 77.3205 97.8545 76.1171C96.8833 74.9137 95.6915 74.0608 94.3951 73.6415C93.0986 73.2222 91.7416 73.2507 90.456 73.7243C89.1704 74.1978 88 75.1002 87.0587 76.3438C86.2615 77.3968 85.6286 78.739 85.5259 80.2178C85.4232 81.6966 85.9456 83.3012 86.9568 83.9655L87.0103 83.2263Z" fill="#2F2E41"/>
<path id="Vector_32" d="M150.335 97.393H118.072C117.553 97.393 117.056 97.1224 116.689 96.6408C116.322 96.1592 116.116 95.506 116.116 94.8249C116.116 94.1438 116.322 93.4906 116.689 93.009C117.056 92.5274 117.553 92.2568 118.072 92.2568H150.335C150.854 92.2568 151.351 92.5274 151.718 93.009C152.085 93.4906 152.291 94.1438 152.291 94.8249C152.291 95.506 152.085 96.1592 151.718 96.6408C151.351 97.1224 150.854 97.393 150.335 97.393Z" fill="#E6E6E6"/>
<path id="Vector_33" d="M135.67 86.4787H118.072C117.553 86.4787 117.056 86.2081 116.689 85.7265C116.322 85.2449 116.116 84.5917 116.116 83.9106C116.116 83.2295 116.322 82.5763 116.689 82.0947C117.056 81.6131 117.553 81.3425 118.072 81.3425H135.67C136.189 81.3425 136.686 81.6131 137.053 82.0947C137.42 82.5763 137.626 83.2295 137.626 83.9106C137.626 84.5917 137.42 85.2449 137.053 85.7265C136.686 86.2081 136.189 86.4787 135.67 86.4787Z" fill="#3F7D9A"/>
<path id="Vector_34" d="M145.113 105.233C143.405 105.237 141.768 106.131 140.562 107.719C139.355 109.306 138.677 111.458 138.677 113.701C138.677 115.944 139.355 118.095 140.562 119.683C141.768 121.27 143.405 122.164 145.113 122.168H145.113C146.821 122.164 148.458 121.27 149.664 119.683C150.871 118.095 151.548 115.944 151.548 113.701C151.548 111.458 150.871 109.306 149.664 107.719C148.458 106.131 146.821 105.237 145.113 105.233Z" fill="#3F7D9A"/>
<path id="Path 395" d="M144.501 117.218C144.331 117.218 144.166 117.146 144.03 117.012L144.022 117.004L142.249 115.222C142.083 115.055 141.975 114.809 141.948 114.537C141.921 114.265 141.977 113.99 142.104 113.773C142.231 113.555 142.419 113.412 142.625 113.376C142.832 113.34 143.042 113.413 143.208 113.58L144.356 114.737L147.07 110.087C147.133 109.979 147.211 109.889 147.301 109.821C147.39 109.753 147.489 109.708 147.592 109.691C147.694 109.673 147.799 109.682 147.899 109.717C147.998 109.752 148.092 109.813 148.174 109.895L148.174 109.895L148.158 109.926L148.175 109.895C148.34 110.063 148.449 110.309 148.476 110.581C148.503 110.853 148.447 111.128 148.321 111.346L145.129 116.813C145.055 116.939 144.96 117.041 144.851 117.111C144.742 117.181 144.623 117.217 144.502 117.216L144.501 117.218Z" fill="white"/>
</g>
<defs>
<filter id="filter0_d_48_7" x="0.8125" y="0" width="227.515" height="136" filterUnits="userSpaceOnUse" color-interpolation-filters="sRGB">
<feFlood flood-opacity="0" result="BackgroundImageFix"/>
<feColorMatrix in="SourceAlpha" type="matrix" values="0 0 0 0 0 0 0 0 0 0 0 0 0 0 0 0 0 0 127 0" result="hardAlpha"/>
<feOffset dy="4"/>
<feGaussianBlur stdDeviation="2"/>
<feComposite in2="hardAlpha" operator="out"/>
<feColorMatrix type="matrix" values="0 0 0 0 0 0 0 0 0 0 0 0 0 0 0 0 0 0 0.25 0"/>
<feBlend mode="normal" in2="BackgroundImageFix" result="effect1_dropShadow_48_7"/>
<feBlend mode="normal" in="SourceGraphic" in2="effect1_dropShadow_48_7" result="shape"/>
</filter>
<clipPath id="clip0_48_7">
<rect width="219.515" height="128" fill="white" transform="translate(4.8125)"/>
</clipPath>
</defs>
</svg>
