<svg width="163" height="165" viewBox="0 0 163 165" fill="none" xmlns="http://www.w3.org/2000/svg">
<g id="undraw_profile_pic_ic-5-t 1">
<g clip-path="url(#clip0_52_188)">
<g id="Group" opacity="0.5">
<path id="Vector" d="M81.4929 164.024C126.13 164.024 162.316 127.45 162.316 82.3333C162.316 37.2168 126.13 0.642578 81.4929 0.642578C36.8556 0.642578 0.669922 37.2168 0.669922 82.3333C0.669922 127.45 36.8556 164.024 81.4929 164.024Z" fill="url(#paint0_linear_52_188)"/>
</g>
<path id="Vector_2" d="M81.6504 161.779C125.346 161.779 160.769 125.976 160.769 81.8112C160.769 37.6461 125.346 1.84326 81.6504 1.84326C37.9544 1.84326 2.53186 37.6461 2.53186 81.8112C2.53186 125.976 37.9544 161.779 81.6504 161.779Z" fill="#F5F5F5"/>
<path id="Vector_3" d="M81.7244 162.095C97.1842 162.121 112.309 157.546 125.214 148.941C122.298 132.836 111.203 131.919 111.203 131.919H50.0182C50.0182 131.919 39.5483 132.787 36.2783 147.602C49.5827 157.061 65.4584 162.124 81.7244 162.095Z" fill="#3F7D9A"/>
<path id="Vector_4" d="M80.8838 118.724C101.975 118.724 119.072 101.443 119.072 80.1261C119.072 58.8089 101.975 41.5278 80.8838 41.5278C59.793 41.5278 42.6956 58.8089 42.6956 80.1261C42.6956 101.443 59.793 118.724 80.8838 118.724Z" fill="#333333"/>
<path id="Vector_5" opacity="0.1" d="M68.5588 112.276H93.028V132.062C93.028 135.34 91.7397 138.485 89.4463 140.804C87.1528 143.123 84.0421 144.426 80.7981 144.428C77.5533 144.428 74.4413 143.125 72.1469 140.806C69.8525 138.487 68.5635 135.341 68.5635 132.062V112.276H68.5588Z" fill="black"/>
<path id="Vector_6" d="M69.3348 111.358H92.2616C92.4674 111.358 92.6647 111.441 92.8102 111.588C92.9557 111.735 93.0374 111.934 93.0374 112.142V131.144C93.0377 132.769 92.7214 134.377 92.1064 135.878C91.4914 137.379 90.5898 138.743 89.4532 139.891C88.3166 141.04 86.9672 141.951 85.4821 142.572C83.9971 143.194 82.4055 143.513 80.7982 143.512C77.5534 143.512 74.4415 142.21 72.147 139.891C69.8526 137.571 68.5636 134.426 68.5636 131.147V112.142C68.5636 111.935 68.6447 111.736 68.7892 111.589C68.9337 111.443 69.1298 111.359 69.3348 111.358Z" fill="#FDB797"/>
<path id="Vector_7" opacity="0.1" d="M68.6029 121.615C76.4891 124.593 85.1699 124.617 93.0721 121.683V118.64H68.6029V121.615Z" fill="black"/>
<path id="Vector_8" d="M80.8838 123.27C100.254 123.27 115.957 107.398 115.957 87.8199C115.957 68.2414 100.254 52.3699 80.8838 52.3699C61.5132 52.3699 45.8103 68.2414 45.8103 87.8199C45.8103 107.398 61.5132 123.27 80.8838 123.27Z" fill="#FDB797"/>
<path id="Vector_9" opacity="0.1" d="M55.9005 55.5743C55.9005 55.5743 70.6825 85.9005 112.379 68.289L102.671 52.9036L85.4623 46.6609L55.9005 55.5743Z" fill="black"/>
<path id="Vector_10" d="M55.9005 55.1295C55.9005 55.1295 70.6825 85.4557 112.379 67.8396L102.671 52.4541L85.4623 46.2114L55.9005 55.1295Z" fill="#333333"/>
<path id="Vector_11" d="M55.7708 53.0743C56.7675 49.9558 58.49 47.1247 60.7938 44.8186C67.6927 37.9253 79.0033 36.4717 84.8045 28.6116C86.194 30.7931 85.1195 34.1473 82.7202 35.0836C88.2783 35.0462 94.7186 34.5546 97.8612 29.9341C98.6379 31.7615 98.8854 33.7742 98.5751 35.7383C98.2648 37.7023 97.4093 39.537 96.1081 41.029C101.034 41.2631 106.298 44.6337 106.608 49.6077C106.821 52.9222 104.756 56.0587 102.071 57.9594C99.3874 59.86 96.1174 60.7331 92.91 61.447C83.5447 63.5373 49.6593 72.2845 55.7708 53.0743Z" fill="#333333"/>
<path id="Vector_12" d="M45.7965 93.9713C47.5986 93.9713 49.0595 91.2026 49.0595 87.7872C49.0595 84.3718 47.5986 81.603 45.7965 81.603C43.9944 81.603 42.5334 84.3718 42.5334 87.7872C42.5334 91.2026 43.9944 93.9713 45.7965 93.9713Z" fill="#FDB797"/>
<path id="Vector_13" d="M115.953 93.9713C117.755 93.9713 119.216 91.2026 119.216 87.7872C119.216 84.3718 117.755 81.603 115.953 81.603C114.151 81.603 112.69 84.3718 112.69 87.7872C112.69 91.2026 114.151 93.9713 115.953 93.9713Z" fill="#FDB797"/>
</g>
</g>
<defs>
<linearGradient id="paint0_linear_52_188" x1="81.4929" y1="164.024" x2="81.4929" y2="0.642578" gradientUnits="userSpaceOnUse">
<stop stop-color="#808080" stop-opacity="0.25"/>
<stop offset="0.54" stop-color="#808080" stop-opacity="0.12"/>
<stop offset="1" stop-color="#808080" stop-opacity="0.1"/>
</linearGradient>
<clipPath id="clip0_52_188">
<rect x="0.669922" y="0.642578" width="161.646" height="163.381" rx="18" fill="white"/>
</clipPath>
</defs>
</svg>
