<svg width="195" height="173" viewBox="0 0 195 173" fill="none" xmlns="http://www.w3.org/2000/svg">
<g id="undraw_build_wireframe_re_ln7g 1" clip-path="url(#clip0_49_85)" filter="url(#filter0_d_49_85)">
<path id="Vector" d="M37.5674 135.974C34.4649 133.605 31.5582 128.194 34.132 123.673C35.4085 121.431 37.6358 120.602 39.7337 120.358C42.6355 120.02 45.5708 120.711 48.2696 121.755C51.3826 122.959 54.3046 124.706 57.1994 126.468C60.0573 128.207 62.93 129.904 65.8647 131.464C71.6478 134.537 77.5969 137.188 83.6761 139.402C89.6357 141.577 95.7096 143.323 101.862 144.632C104.916 145.28 107.989 145.814 111.082 146.234C113.969 146.624 116.879 146.98 119.805 146.966C123.66 146.947 130.095 146.437 131.511 140.829C132.263 137.856 131.246 134.763 129.975 132.359C128.438 129.451 126.329 127.05 124.259 124.71C114.632 113.822 104.981 102.964 95.3078 92.1347C93.0555 89.6006 90.7729 87.0941 88.6791 84.3667C86.7189 81.8132 84.8512 79.0288 83.6757 75.8037C82.6491 72.9868 82.0476 69.5502 83.1585 66.5005C84.0798 63.9712 86.0619 62.358 88.1345 61.4149C93.266 59.0799 99.1368 59.8164 104.231 61.0987C110.56 62.6919 116.61 65.385 122.93 67.0162C128.034 68.3332 133.73 69.0307 138.931 67.0463C140.925 66.2854 142.883 65.0359 144.221 63.0088C145.533 61.0231 145.993 58.5365 145.785 56.1241C145.539 53.2769 144.495 50.6322 143.247 48.2916C141.757 45.5636 139.939 43.0857 137.845 40.93C133.363 36.2157 128.218 32.5129 123.417 28.2911C121.063 26.2206 118.712 24.0523 116.767 21.4279C115.119 19.2045 113.439 16.4479 113.167 13.3367C112.604 6.91777 119.43 6.27241 123.092 6.50594C125.588 6.70512 128.068 7.10468 130.514 7.70162C131.037 7.82059 131.144 6.81305 130.623 6.69464C128.053 6.11049 125.453 5.60504 122.817 5.47727C120.597 5.36969 118.233 5.47386 116.103 6.5139C114.314 7.38739 112.804 9.08688 112.402 11.4103C111.927 14.1593 113.018 16.9245 114.188 19.0963C115.736 21.9682 117.818 24.3195 120.014 26.4575C122.326 28.7092 124.776 30.7516 127.23 32.7778C132.134 36.8266 137.344 40.8075 141.088 46.4512C143.706 50.3992 146.835 57.0104 143.758 62.1165C142.392 64.3831 140.176 65.6453 138.014 66.3376C135.402 67.1743 132.685 67.3315 130.038 67.1741C117.696 66.4404 106.683 58.1552 94.1164 59.0217C89.8436 59.3164 84.2575 60.8269 82.3499 66.2595C81.3589 69.0816 81.6782 72.2153 82.4707 74.932C83.4199 78.186 85.1181 81.0346 86.9594 83.6028C88.9071 86.3195 91.081 88.7856 93.255 91.2345C95.6746 93.9601 98.0954 96.6839 100.518 99.4061L115.212 115.939L122.513 124.154C124.741 126.661 127.057 129.145 128.83 132.16C130.282 134.629 131.748 138.273 130.436 141.406C129.395 143.895 126.944 144.936 124.86 145.434C122.161 146.079 119.392 146.042 116.695 145.835C113.584 145.597 110.486 145.169 107.41 144.656C101.078 143.594 94.8149 142.058 88.6611 140.057C82.4857 138.054 76.429 135.605 70.5279 132.725C67.5451 131.269 64.6056 129.703 61.7094 128.026C58.7244 126.297 55.8178 124.384 52.7867 122.762C50.045 121.295 47.1845 120.082 44.172 119.547C41.6567 119.1 38.8542 119.049 36.4018 120.29C35.5353 120.724 34.7587 121.36 34.1225 122.157C33.4863 122.954 33.0048 123.894 32.7093 124.917C32.16 127.003 32.2609 129.241 32.9949 131.253C33.8229 133.523 35.2355 135.457 37.0472 136.798C37.4904 137.137 38.0125 136.314 37.5674 135.974L37.5674 135.974Z" fill="#F2F2F2"/>
<path id="Vector_2" d="M190.223 26.2228H122.152V0H190.223V26.2228Z" fill="white"/>
<path id="Vector_3" d="M146.362 82.1802H80.7781V132.479H146.362V82.1802Z" fill="white"/>
<path id="Vector_4" d="M146.589 132.736H80.552V81.9231H146.589V132.736ZM81.0043 132.222H146.136V82.4373H81.0043V132.222Z" fill="#3F3D56"/>
<path id="Vector_5" d="M86.3204 121.453H140.82V86.1704H86.3204V121.453Z" fill="#E6E6E6"/>
<path id="Vector_6" d="M102.353 108.107C105.37 108.107 107.815 105.327 107.815 101.898C107.815 98.4683 105.37 95.6882 102.353 95.6882C99.3363 95.6882 96.8907 98.4683 96.8907 101.898C96.8907 105.327 99.3363 108.107 102.353 108.107Z" fill="#3F7D9A"/>
<path id="Vector_7" d="M119.482 121.033H92.6858C92.6523 121.033 92.6188 121.03 92.5857 121.024L105.259 96.0689C105.336 95.9135 105.449 95.7842 105.584 95.6942C105.72 95.6043 105.874 95.5569 106.031 95.5569C106.188 95.5569 106.343 95.6043 106.478 95.6942C106.614 95.7842 106.726 95.9135 106.804 96.0689L115.309 112.816L115.717 113.617L119.482 121.033Z" fill="#3F3D56"/>
<path id="Vector_8" opacity="0.2" d="M119.482 121.033H110.333L114.824 113.617L115.148 113.083L115.309 112.815L115.717 113.617L119.482 121.033Z" fill="black"/>
<path id="Vector_9" d="M134.402 121.033H111.225L115.717 113.617L116.04 113.083L121.892 103.418C121.996 103.271 122.125 103.149 122.273 103.062C122.42 102.975 122.582 102.925 122.748 102.913C122.913 102.902 123.079 102.931 123.235 102.997C123.39 103.063 123.532 103.166 123.65 103.299C123.68 103.336 123.708 103.376 123.734 103.418L134.402 121.033Z" fill="#3F3D56"/>
<path id="Vector_10" d="M170.322 35.478H103.607V72.2414H170.322V35.478Z" fill="white"/>
<path id="Vector_11" d="M114.445 53.1318C117.11 53.1318 119.271 50.6757 119.271 47.646C119.271 44.6162 117.11 42.1602 114.445 42.1602C111.78 42.1602 109.62 44.6162 109.62 47.646C109.62 50.6757 111.78 53.1318 114.445 53.1318Z" fill="#E6E6E6"/>
<path id="Vector_12" d="M125.59 43.9888C125.377 43.9888 125.173 44.0851 125.022 44.2566C124.871 44.428 124.786 44.6606 124.786 44.9031C124.786 45.1456 124.871 45.3781 125.022 45.5496C125.173 45.7211 125.377 45.8174 125.59 45.8174H163.507C163.72 45.8168 163.924 45.7202 164.074 45.5488C164.225 45.3774 164.309 45.1452 164.309 44.9031C164.309 44.661 164.225 44.4287 164.074 44.2573C163.924 44.0859 163.72 43.9893 163.507 43.9888H125.59Z" fill="#E6E6E6"/>
<path id="Vector_13" d="M125.59 49.4746C125.485 49.4742 125.38 49.4975 125.282 49.5432C125.184 49.5888 125.096 49.656 125.021 49.7407C124.946 49.8254 124.886 49.9261 124.846 50.037C124.805 50.1479 124.784 50.2668 124.784 50.387C124.783 50.5071 124.804 50.6262 124.844 50.7373C124.884 50.8483 124.944 50.9493 125.018 51.0344C125.093 51.1195 125.182 51.187 125.279 51.2332C125.377 51.2793 125.481 51.3031 125.587 51.3032H141.906C142.119 51.3032 142.324 51.2069 142.475 51.0354C142.626 50.864 142.71 50.6314 142.71 50.3889C142.71 50.1464 142.626 49.9139 142.475 49.7424C142.324 49.5709 142.119 49.4746 141.906 49.4746H125.59Z" fill="#E6E6E6"/>
<path id="Vector_14" d="M110.744 58.2449C110.132 58.2449 109.634 58.6551 109.634 59.1592C109.634 59.6633 110.132 60.0735 110.744 60.0735H163.057C163.669 60.0735 164.167 59.6633 164.167 59.1592C164.167 58.6551 163.669 58.2449 163.057 58.2449H110.744Z" fill="#E6E6E6"/>
<path id="Vector_15" d="M110.744 63.7307C110.132 63.7307 109.634 64.1409 109.634 64.645C109.634 65.1491 110.132 65.5593 110.744 65.5593H163.057C163.669 65.5593 164.167 65.1491 164.167 64.645C164.167 64.1409 163.669 63.7307 163.057 63.7307H110.744Z" fill="#E6E6E6"/>
<path id="Vector_16" d="M171 73.0127H102.929V34.7068H171V73.0127ZM104.286 71.4702H169.644V36.2493H104.286V71.4702Z" fill="#E6E6E6"/>
<path id="Vector_17" d="M133.668 18.425C136.333 18.425 138.494 15.9689 138.494 12.9392C138.494 9.90946 136.333 7.45337 133.668 7.45337C131.003 7.45337 128.843 9.90946 128.843 12.9392C128.843 15.9689 131.003 18.425 133.668 18.425Z" fill="#E6E6E6"/>
<path id="Vector_18" d="M144.813 9.28198C144.6 9.28198 144.396 9.37831 144.245 9.54977C144.094 9.72124 144.009 9.9538 144.009 10.1963C144.009 10.4388 144.094 10.6713 144.245 10.8428C144.396 11.0143 144.6 11.1106 144.813 11.1106H182.73C182.943 11.11 183.147 11.0134 183.298 10.842C183.448 10.6706 183.532 10.4384 183.532 10.1963C183.532 9.95417 183.448 9.72194 183.298 9.55054C183.147 9.37914 182.943 9.28256 182.73 9.28198H144.813Z" fill="#E6E6E6"/>
<path id="Vector_19" d="M144.813 14.7678C144.708 14.7674 144.603 14.7907 144.505 14.8364C144.407 14.8821 144.319 14.9492 144.244 15.0339C144.169 15.1186 144.109 15.2193 144.069 15.3302C144.028 15.4411 144.007 15.5601 144.007 15.6802C144.006 15.8004 144.027 15.9194 144.067 16.0305C144.108 16.1416 144.167 16.2425 144.241 16.3276C144.316 16.4127 144.405 16.4803 144.502 16.5264C144.6 16.5725 144.704 16.5963 144.81 16.5964H161.129C161.342 16.5964 161.547 16.5001 161.698 16.3286C161.849 16.1572 161.933 15.9246 161.933 15.6821C161.933 15.4396 161.849 15.2071 161.698 15.0356C161.547 14.8642 161.342 14.7678 161.129 14.7678H144.813Z" fill="#E6E6E6"/>
<path id="Vector_20" d="M190.223 26.2228H122.152V0H190.223V26.2228ZM123.509 24.6803H188.867V1.54252H123.509V24.6803Z" fill="#E6E6E6"/>
<path id="Vector_21" d="M46.5787 160.645L50.2392 160.645L51.9808 144.594L46.578 144.595L46.5787 160.645Z" fill="#FFB8B8"/>
<path id="Vector_22" d="M57.2992 164.509L45.7944 164.509L45.7942 159.456L53.9323 159.456C54.8252 159.456 55.6815 159.859 56.3129 160.577C56.9444 161.294 57.2991 162.268 57.2991 163.283L57.2992 164.509Z" fill="#2F2E41"/>
<path id="Vector_23" d="M31.9477 160.645L35.6084 160.645L37.3498 144.594L31.9473 144.595L31.9477 160.645Z" fill="#FFB8B8"/>
<path id="Vector_24" d="M42.6683 164.509L31.1635 164.509L31.1633 159.456L39.3014 159.456C40.1943 159.456 41.0507 159.859 41.6821 160.577C42.3135 161.294 42.6682 162.268 42.6683 163.283L42.6683 164.509L42.6683 164.509Z" fill="#2F2E41"/>
<path id="Vector_25" d="M52.9563 114.374C52.6577 114.056 52.4242 113.667 52.2721 113.235C52.1201 112.803 52.0532 112.338 52.0762 111.874C52.0992 111.409 52.2115 110.956 52.4053 110.546C52.599 110.136 52.8695 109.779 53.1976 109.501L51.6293 102.45L55.1663 100.321L57.2581 110.315C57.6327 110.972 57.7821 111.763 57.678 112.537C57.5739 113.312 57.2235 114.016 56.6933 114.516C56.163 115.017 55.4897 115.279 54.801 115.252C54.1122 115.226 53.4559 114.914 52.9563 114.374Z" fill="#FFB8B8"/>
<path id="Vector_26" d="M30.646 102.058L30.9445 125.818L31.243 157.045L37.8121 156.366L41.0965 113.259L45.2767 156.366H52.0583L52.7413 112.919L50.3527 103.415L30.646 102.058Z" fill="#2F2E41"/>
<path id="Vector_27" d="M43.503 105.248C36.3556 105.249 29.7765 101.572 29.6877 101.521L29.6139 101.479L29.0141 85.1159C28.8402 84.5376 25.4152 73.1276 24.8352 69.501C24.2475 65.8267 32.7651 62.602 33.7995 62.2249L34.0342 59.2691L43.5793 58.0999L44.789 61.882L48.2134 63.3416C48.6016 63.5072 48.9229 63.829 49.1164 64.2459C49.3099 64.6628 49.3621 65.1459 49.2632 65.6036L47.36 74.402L51.1036 103.511L51.0075 103.56C48.6088 104.792 46.0199 105.248 43.503 105.248Z" fill="#3F7D9A"/>
<path id="Vector_28" d="M52.0363 107.075L48.7238 91.573L45.1335 72.8665L46.956 63.5432H48.5141C48.5427 63.5432 51.3741 63.5914 51.9837 67.7492C52.5742 71.7764 54.3547 84.5931 54.3726 84.722L57.3819 106.616L52.0363 107.075Z" fill="#3F7D9A"/>
<path id="Vector_29" d="M37.8622 104.455C37.8428 103.99 37.7341 103.536 37.5435 103.124C37.353 102.712 37.0854 102.353 36.7595 102.071C36.4336 101.79 36.0573 101.593 35.6572 101.495C35.2572 101.396 34.843 101.399 34.4439 101.502L30.7413 95.5706L27.0216 97.2492L32.3539 105.542C32.551 106.293 32.9835 106.935 33.5694 107.348C34.1553 107.76 34.8539 107.914 35.5329 107.78C36.2119 107.646 36.824 107.233 37.2533 106.621C37.6826 106.008 37.8993 105.237 37.8622 104.455H37.8622Z" fill="#FFB8B8"/>
<path id="Vector_30" d="M30.646 104.016L19.4426 87.4933L23.6404 72.4957C23.9481 68.7251 26.0236 67.6722 26.112 67.6292L26.2467 67.5635L29.8996 78.6372L27.2175 86.7677L33.8006 99.3539L30.646 104.016Z" fill="#3F7D9A"/>
<path id="Vector_31" d="M42.4772 55.2708C45.8077 53.2012 47.0317 48.4543 45.2111 44.6683C43.3905 40.8823 39.2148 39.4909 35.8843 41.5605C32.5539 43.6301 31.3299 48.377 33.1505 52.163C34.9711 55.949 39.1468 57.3404 42.4772 55.2708Z" fill="#FFB8B8"/>
<path id="Vector_32" d="M43.7949 44.6103C43.0835 45.5674 41.8795 45.8374 40.7689 45.9482C38.5133 46.1731 35.2335 45.8083 33.0293 45.2298C32.8719 46.9631 33.3009 48.8321 32.4027 50.258C31.9817 48.5318 31.7369 46.7562 31.6731 44.9663C31.6459 44.1986 31.6566 43.4045 31.931 42.6998C32.2055 41.9951 32.8039 41.3969 33.4931 41.3907C32.9811 40.9491 32.3813 40.6576 31.7468 40.542L33.9289 39.2954L33.3685 38.6414L37.3192 38.3665L36.175 37.5402C37.8972 37.2711 39.6395 37.2086 41.3732 37.3536C42.1783 37.421 43.02 37.5499 43.6723 38.0801C44.3246 38.6104 44.7015 39.6643 44.2966 40.4428C44.8036 40.5374 45.2809 40.7777 45.6834 41.1407C46.0858 41.5037 46.4001 41.9775 46.5964 42.5172C46.8872 43.3553 46.8606 44.2862 46.771 45.1793C46.6222 46.6076 46.3302 48.012 45.9007 49.3649" fill="#2F2E41"/>
<path id="Vector_33" d="M91.2657 165H5.10164C5.04166 165 4.98414 164.973 4.94173 164.925C4.89931 164.876 4.87549 164.811 4.87549 164.743C4.87549 164.675 4.89931 164.609 4.94173 164.561C4.98414 164.513 5.04166 164.486 5.10164 164.486H91.2657C91.3257 164.486 91.3832 164.513 91.4256 164.561C91.468 164.609 91.4919 164.675 91.4919 164.743C91.4919 164.811 91.468 164.876 91.4256 164.925C91.3832 164.973 91.3257 165 91.2657 165Z" fill="#CCCCCC"/>
</g>
<defs>
<filter id="filter0_d_49_85" x="0.875488" y="0" width="193.348" height="173" filterUnits="userSpaceOnUse" color-interpolation-filters="sRGB">
<feFlood flood-opacity="0" result="BackgroundImageFix"/>
<feColorMatrix in="SourceAlpha" type="matrix" values="0 0 0 0 0 0 0 0 0 0 0 0 0 0 0 0 0 0 127 0" result="hardAlpha"/>
<feOffset dy="4"/>
<feGaussianBlur stdDeviation="2"/>
<feComposite in2="hardAlpha" operator="out"/>
<feColorMatrix type="matrix" values="0 0 0 0 0 0 0 0 0 0 0 0 0 0 0 0 0 0 0.25 0"/>
<feBlend mode="normal" in2="BackgroundImageFix" result="effect1_dropShadow_49_85"/>
<feBlend mode="normal" in="SourceGraphic" in2="effect1_dropShadow_49_85" result="shape"/>
</filter>
<clipPath id="clip0_49_85">
<rect width="185.348" height="165" fill="white" transform="translate(4.87549)"/>
</clipPath>
</defs>
</svg>
