<svg width="209" height="148" viewBox="0 0 209 148" fill="none" xmlns="http://www.w3.org/2000/svg">
<g id="undraw_thought_process_re_om58 1" clip-path="url(#clip0_49_119)">
<path id="Vector" d="M203.476 90.3888H196.166C196.01 90.3892 195.856 90.3508 195.715 90.2766C195.574 90.2023 195.451 90.0941 195.354 89.9602C195.258 89.8296 195.19 89.6769 195.156 89.5136C195.122 89.3503 195.121 89.1805 195.155 89.0172C195.842 85.6978 195.809 82.2485 195.059 78.9456C195.001 78.693 195.025 78.4262 195.126 78.1906C195.228 77.9551 195.401 77.7654 195.616 77.6539C198.669 76.0885 201.473 76.1293 203.949 77.7749C204.079 77.8599 204.19 77.975 204.275 78.112C204.36 78.249 204.417 78.4047 204.442 78.5683C204.967 82.159 204.987 85.8167 204.501 89.4141C204.467 89.6849 204.344 89.9328 204.156 90.112C203.967 90.2912 203.726 90.3896 203.476 90.3888Z" fill="#3F7D9A"/>
<path id="Vector_2" d="M203.365 85.1432H197.776C197.637 85.1429 197.504 85.0823 197.406 84.9746C197.308 84.8669 197.253 84.721 197.253 84.5689C197.253 84.4168 197.308 84.2709 197.406 84.1633C197.504 84.0556 197.637 83.9949 197.776 83.9946H203.365C203.504 83.9949 203.637 84.0556 203.735 84.1633C203.833 84.2709 203.888 84.4168 203.888 84.5689C203.888 84.721 203.833 84.8669 203.735 84.9746C203.637 85.0823 203.504 85.1429 203.365 85.1432Z" fill="white"/>
<path id="Vector_3" d="M203.365 83.1293H197.776C197.637 83.129 197.504 83.0683 197.406 82.9607C197.308 82.853 197.253 82.7071 197.253 82.555C197.253 82.4029 197.308 82.257 197.406 82.1493C197.504 82.0417 197.637 81.981 197.776 81.9807H203.365C203.504 81.981 203.637 82.0417 203.735 82.1493C203.833 82.257 203.888 82.4029 203.888 82.555C203.888 82.7071 203.833 82.853 203.735 82.9607C203.637 83.0683 203.504 83.129 203.365 83.1293Z" fill="white"/>
<path id="Vector_4" d="M57.0904 89.5861C78.5432 89.5861 95.9341 70.537 95.9341 47.0387C95.9341 23.5404 78.5432 4.49121 57.0904 4.49121C35.6376 4.49121 18.2467 23.5404 18.2467 47.0387C18.2467 70.537 35.6376 89.5861 57.0904 89.5861Z" fill="#F2F2F2"/>
<path id="Vector_5" d="M102.14 88.3275C106.202 88.3275 109.495 84.7206 109.495 80.2712C109.495 75.8218 106.202 72.2148 102.14 72.2148C98.0779 72.2148 94.7849 75.8218 94.7849 80.2712C94.7849 84.7206 98.0779 88.3275 102.14 88.3275Z" fill="#F2F2F2"/>
<path id="Vector_6" d="M139.145 106.454C140.795 106.454 142.133 104.989 142.133 103.181C142.133 101.374 140.795 99.9084 139.145 99.9084C137.495 99.9084 136.157 101.374 136.157 103.181C136.157 104.989 137.495 106.454 139.145 106.454Z" fill="#F2F2F2"/>
<path id="Vector_7" d="M162.215 116.054C160.955 105.507 154.922 95.1491 145.712 91.7786C149.4 102.617 149.469 114.536 145.907 125.425C144.519 129.619 142.577 134.125 143.93 138.333C144.771 140.951 146.805 142.944 149.072 144.184C151.34 145.423 153.852 146.004 156.332 146.573L156.822 147.011C160.697 137.258 163.475 126.601 162.215 116.054Z" fill="#F2F2F2"/>
<path id="Vector_8" d="M145.622 91.9789C151.012 98.5099 154.387 106.735 155.267 115.486C155.445 117.363 155.476 119.283 155.112 121.136C154.745 122.939 153.943 124.601 152.791 125.951C151.74 127.232 150.529 128.41 149.78 129.949C148.991 131.572 148.971 133.409 149.528 135.123C150.209 137.219 151.537 138.923 152.889 140.539C154.39 142.334 155.975 144.172 156.623 146.561C156.701 146.85 157.107 146.7 157.028 146.411C155.902 142.255 152.198 139.916 150.416 136.178C149.585 134.433 149.228 132.404 149.987 130.552C150.651 128.932 151.899 127.716 152.973 126.428C154.102 125.076 154.965 123.596 155.403 121.813C155.851 119.989 155.888 118.064 155.755 116.191C155.423 111.947 154.485 107.786 152.973 103.861C151.271 99.3704 148.88 95.2323 145.903 91.6254C145.719 91.4022 145.439 91.7572 145.622 91.9789H145.622Z" fill="white"/>
<path id="Vector_9" d="M155.135 112.65C156.455 112.289 157.616 111.426 158.409 110.214C159.201 109.003 159.575 107.522 159.464 106.036C159.44 105.736 159.013 105.762 159.036 106.063C159.143 107.446 158.794 108.825 158.054 109.952C157.313 111.078 156.229 111.878 154.998 112.206C154.731 112.277 154.869 112.721 155.135 112.65Z" fill="white"/>
<path id="Vector_10" d="M153.402 125.378C151.005 123.832 149.227 121.354 148.423 118.436C148.344 118.147 147.939 118.297 148.018 118.586C148.859 121.62 150.714 124.196 153.212 125.798C153.451 125.95 153.639 125.529 153.402 125.378Z" fill="white"/>
<path id="Vector_11" d="M150.876 99.8171C150.392 100.073 149.857 100.194 149.32 100.168C148.782 100.142 148.259 99.9698 147.798 99.6676C147.561 99.5118 147.373 99.9329 147.608 100.088C148.119 100.419 148.697 100.608 149.291 100.638C149.884 100.669 150.476 100.539 151.013 100.261C151.066 100.24 151.109 100.197 151.134 100.142C151.159 100.087 151.164 100.023 151.148 99.9643C151.129 99.9056 151.09 99.8572 151.04 99.8296C150.989 99.8021 150.93 99.7976 150.876 99.8171V99.8171Z" fill="white"/>
<path id="Vector_12" d="M117.809 110.828C117.954 110.93 118.1 111.032 118.245 111.137C120.188 112.518 122.026 114.069 123.741 115.776C123.875 115.905 124.01 116.039 124.14 116.172C128.23 120.332 131.58 125.287 134.018 130.786C134.987 132.975 135.802 135.242 136.457 137.567C137.36 140.777 138.107 144.337 139.875 146.956C140.056 147.231 140.253 147.494 140.464 147.743L156.296 147.632C156.332 147.612 156.368 147.596 156.404 147.576L157.036 147.603C157.01 147.48 156.981 147.354 156.955 147.231C156.94 147.16 156.921 147.089 156.906 147.018C156.895 146.971 156.884 146.923 156.877 146.88C156.873 146.864 156.869 146.848 156.866 146.836C156.858 146.793 156.847 146.753 156.84 146.714C156.677 146.007 156.509 145.3 156.336 144.593C156.336 144.589 156.336 144.589 156.332 144.585C155.004 139.201 153.254 133.892 150.823 129.042C150.75 128.896 150.677 128.747 150.597 128.601C149.49 126.421 148.223 124.345 146.807 122.392C146.029 121.325 145.202 120.302 144.329 119.327C142.07 116.812 139.464 114.702 136.606 113.074C130.909 109.83 124.327 108.618 118.271 110.666C118.116 110.719 117.964 110.771 117.809 110.828Z" fill="#F2F2F2"/>
<path id="Vector_13" d="M117.846 111.048C125.74 112.707 132.956 117.049 138.468 123.457C139.641 124.837 140.722 126.35 141.45 128.069C142.148 129.751 142.422 131.607 142.243 133.444C142.108 135.161 141.789 136.9 142.037 138.623C142.299 140.438 143.293 141.918 144.679 142.92C146.376 144.144 148.373 144.629 150.34 145.028C152.525 145.471 154.801 145.893 156.631 147.374C156.853 147.553 157.094 147.166 156.873 146.987C153.689 144.411 149.446 144.986 145.968 143.176C144.346 142.332 142.946 140.947 142.533 138.967C142.173 137.236 142.501 135.443 142.651 133.706C142.809 131.882 142.684 130.131 142.054 128.418C141.41 126.667 140.381 125.105 139.245 123.697C136.648 120.527 133.611 117.824 130.247 115.687C126.419 113.224 122.236 111.497 117.877 110.58C117.607 110.523 117.578 110.991 117.846 111.048Z" fill="white"/>
<path id="Vector_14" d="M136.804 121.279C137.66 120.12 138.112 118.666 138.079 117.176C138.046 115.685 137.531 114.256 136.625 113.144C136.441 112.919 136.114 113.222 136.298 113.447C137.143 114.481 137.623 115.812 137.651 117.2C137.679 118.588 137.253 119.941 136.45 121.015C136.276 121.249 136.631 121.512 136.804 121.279Z" fill="white"/>
<path id="Vector_15" d="M142.416 132.584C139.653 132.931 136.871 132.125 134.626 130.325C134.403 130.146 134.162 130.534 134.384 130.712C136.724 132.58 139.62 133.413 142.496 133.044C142.77 133.009 142.689 132.549 142.416 132.584Z" fill="white"/>
<path id="Vector_16" d="M126.35 113.841C126.104 114.365 125.743 114.814 125.3 115.148C124.856 115.481 124.344 115.689 123.81 115.752C123.535 115.784 123.616 116.244 123.889 116.213C124.479 116.14 125.045 115.91 125.535 115.543C126.026 115.175 126.427 114.682 126.703 114.106C126.734 114.054 126.745 113.991 126.734 113.931C126.724 113.87 126.693 113.816 126.647 113.78C126.6 113.745 126.543 113.732 126.487 113.744C126.431 113.755 126.382 113.79 126.35 113.841H126.35Z" fill="white"/>
<path id="Vector_17" d="M193.743 74.8356L191.602 52.136L191.037 42.7936L197.029 41.6067C197.029 41.6067 197.927 48.0292 198.712 51.7982C199.486 55.5173 197.68 74.3373 197.632 74.8336C198.072 75.2647 198.382 75.8319 198.522 76.4603C198.661 77.0887 198.623 77.7487 198.412 78.3528C198.202 78.957 197.829 79.477 197.343 79.8439C196.857 80.2108 196.28 80.4075 195.69 80.4078C195.099 80.4081 194.523 80.212 194.036 79.8456C193.55 79.4792 193.176 78.9596 192.965 78.3557C192.754 77.7517 192.716 77.0918 192.855 76.4633C192.993 75.8347 193.303 75.2672 193.743 74.8356Z" fill="#FFB8B8"/>
<path id="Vector_18" d="M169.255 144.533H166.206L164.756 131.653L169.255 131.654L169.255 144.533Z" fill="#FFB6B6"/>
<path id="Vector_19" d="M170.032 147.77L160.202 147.77V147.634C160.202 146.522 160.605 145.456 161.323 144.671C162.04 143.885 163.013 143.443 164.028 143.443H164.028L165.824 141.951L169.174 143.443L170.032 143.443L170.032 147.77Z" fill="#2F2E41"/>
<path id="Vector_20" d="M196.123 144.533H193.074L191.624 131.653L196.123 131.654L196.123 144.533Z" fill="#FFB6B6"/>
<path id="Vector_21" d="M196.9 147.77L187.07 147.77V147.634C187.071 146.522 187.474 145.456 188.191 144.671C188.909 143.885 189.882 143.443 190.896 143.443H190.897L192.692 141.951L196.042 143.443L196.9 143.443L196.9 147.77Z" fill="#2F2E41"/>
<path id="Vector_22" d="M191.486 75.5989L194.05 102.281C194.05 102.281 197.463 128.997 196.822 132.683C196.181 136.369 196.983 136.896 196.983 136.896L191.134 136.44C191.134 136.44 191.294 134.158 190.332 133.104C189.371 132.051 189.852 128.891 189.852 128.891L178.505 85.429L171.614 108.249C171.614 108.249 170.492 133.351 170.332 133.702C170.172 134.053 169.691 138.792 169.691 138.792H163.761C163.761 138.792 164.563 135.984 163.441 135.106C162.319 134.228 161.358 134.931 162.319 133.351C163.281 131.771 163.601 129.84 163.281 128.962C162.96 128.085 162.96 124.574 162.96 124.574C162.96 124.574 163.441 77.1787 166.165 75.5989C168.89 74.019 191.486 75.5989 191.486 75.5989Z" fill="#2F2E41"/>
<path id="Vector_23" d="M179.343 21.5752C182.826 21.5752 185.65 18.4824 185.65 14.6672C185.65 10.8521 182.826 7.75928 179.343 7.75928C175.86 7.75928 173.036 10.8521 173.036 14.6672C173.036 18.4824 175.86 21.5752 179.343 21.5752Z" fill="#FFB8B8"/>
<path id="Vector_24" d="M198.04 45.2281L191.837 47.6646L189.948 48.4061L188.569 29.1145L193.301 31.8636C193.309 31.87 193.316 31.8777 193.322 31.8864C194.142 32.8778 194.828 33.9925 195.359 35.1967C197.954 40.9755 198.04 45.2281 198.04 45.2281Z" fill="#3F3D56"/>
<path id="Vector_25" d="M155.31 73.2058C155.31 73.2058 161.615 51.7511 161.725 51.4938C162.55 44.6257 164.925 41.5961 165.281 41.925L171.411 44.2509C171.411 44.2509 169.588 50.5749 168.353 54.3312C167.174 57.9205 159.096 74.4921 158.869 74.925C159.112 75.5141 159.187 76.1702 159.082 76.8068C158.978 77.4433 158.7 78.0301 158.285 78.4896C157.869 78.9491 157.336 79.2597 156.756 79.3802C156.176 79.5007 155.576 79.4254 155.036 79.1645C154.496 78.9035 154.041 78.469 153.731 77.9185C153.421 77.3681 153.271 76.7275 153.301 76.0817C153.331 75.4358 153.539 74.8151 153.898 74.3016C154.256 73.788 154.749 73.4059 155.31 73.2058H155.31Z" fill="#FFB8B8"/>
<path id="Vector_26" d="M174.355 30.3568C174.355 30.3568 169.048 27.5079 166.99 33.1032C165.642 36.8767 165.004 38.5227 164.104 42.453C164.104 42.453 169.513 43.3419 171.248 46.6903L174.355 30.3568Z" fill="#3F3D56"/>
<path id="Vector_27" d="M193.666 78.5069C181.452 81.2697 165.266 76.5198 165.266 76.5198L169.584 56.0191L168.049 34.5647C167.862 31.9411 169.226 29.4817 171.348 28.6102L174.279 27.4079L176.701 23.6094L183.62 23.858L186.386 27.8459L188.569 29.1144L193.301 31.8635L193.322 31.8749V31.8863L191.837 47.6646L190.941 57.178C190.941 57.178 193.661 67.8778 193.103 69.2969C192.545 70.7136 193.03 70.0292 193.166 70.7866C193.301 71.5441 193.716 71.592 193.778 73.084C193.843 74.5738 193.666 78.5069 193.666 78.5069Z" fill="#3F3D56"/>
<path id="Vector_28" d="M186.184 12.2072C185.686 11.6687 186.436 10.2429 186.295 9.49192C186.132 8.6309 185.266 8.60571 185.059 7.75611C184.837 6.84215 183.948 6.3446 183.126 6.05494C181.019 5.31644 178.77 5.20364 176.611 5.72807C175.655 5.98374 174.713 6.30133 173.792 6.67915C173.156 6.92439 173.769 6.25704 173.133 6.50228C172.892 6.56108 172.68 6.71551 172.537 6.93578C172.422 7.17264 172.576 7.55145 172.817 7.50346C172.04 7.87862 171.264 8.25378 170.487 8.62893C170.923 9.12872 171.358 9.62852 171.794 10.1283C171.175 9.93529 170.514 10.744 170.759 11.3965C170.857 11.6025 170.999 11.7792 171.174 11.9115C171.348 12.0438 171.549 12.1276 171.76 12.1558C172.459 12.3049 171.929 13.0341 172.641 13.0199C173.354 13.0057 178.323 11.4058 178.669 12.088C178.916 12.5738 178.889 13.2173 179.241 13.6175C179.692 14.1296 180.479 13.9423 181.052 13.6089C181.626 13.2756 182.208 12.8174 182.853 12.8973C183.526 12.9808 184.036 14.3443 184.202 15.0642C184.368 15.7842 184.263 16.5418 184.157 17.2753C184.019 18.2386 182.63 19.2019 182.492 20.1653C184.032 20.632 185.685 19.1469 186.295 16.5643C186.234 14.9317 187.246 13.3548 186.184 12.2072Z" fill="#2F2E41"/>
<path id="Vector_29" d="M88.1422 101.924C69.5768 101.925 53.4236 86.7545 51.0372 66.0634L51.4933 66.0002C53.8501 86.4358 69.8066 101.419 88.1425 101.42C89.7004 101.42 91.2567 101.312 92.8023 101.098C113.025 98.2995 127.399 78.0016 124.845 55.8503L125.301 55.7871C127.887 78.2138 113.334 98.7645 92.86 101.597C91.2952 101.814 89.7195 101.923 88.1422 101.924Z" fill="#3F3D56"/>
<path id="Vector_30" d="M89.1392 110.344H81.8292C81.6731 110.345 81.5188 110.306 81.3781 110.232C81.2374 110.158 81.1139 110.05 81.0168 109.916C80.9209 109.785 80.8532 109.633 80.8189 109.469C80.7845 109.306 80.7844 109.136 80.8185 108.973C81.5121 105.62 81.4712 102.134 80.699 98.8015C80.6463 98.5713 80.6613 98.3288 80.7418 98.1085C80.8223 97.8881 80.9643 97.7013 81.1475 97.5745C83.6763 95.8585 86.43 95.9122 89.5662 97.7386C89.7088 97.8209 89.8321 97.9381 89.9265 98.0811C90.0209 98.2241 90.0839 98.3891 90.1105 98.5631C90.6298 102.141 90.648 105.785 90.1644 109.37C90.1299 109.641 90.0071 109.888 89.8186 110.068C89.6301 110.247 89.3887 110.345 89.1392 110.344Z" fill="#3F7D9A"/>
<path id="Vector_31" d="M55.8118 67.5453H48.5019C48.3457 67.5457 48.1915 67.5073 48.0508 67.4331C47.9101 67.3588 47.7865 67.2507 47.6894 67.1167C47.5935 66.9861 47.5258 66.8334 47.4915 66.6701C47.4572 66.5068 47.457 66.3371 47.4911 66.1737C48.1873 62.8089 48.1436 59.311 47.3635 55.9683C47.3142 55.7482 47.3261 55.517 47.3978 55.3044C47.4694 55.0918 47.5976 54.9075 47.7656 54.7754C51.5244 51.8143 54.4845 51.9002 56.5639 55.0312C56.6577 55.1739 56.7199 55.3385 56.7458 55.512C57.3014 59.1705 57.3322 62.9017 56.837 66.5706C56.8025 66.8414 56.6797 67.0893 56.4912 67.2686C56.3027 67.4478 56.0613 67.5461 55.8118 67.5453Z" fill="#CCCCCC"/>
<path id="Vector_32" d="M85.7237 102.83H83.2091C83.0703 102.829 82.9372 102.769 82.8391 102.661C82.741 102.553 82.6859 102.408 82.6859 102.255C82.6859 102.103 82.741 101.957 82.8391 101.85C82.9372 101.742 83.0703 101.681 83.2091 101.681H85.7237C85.8628 101.681 85.9961 101.742 86.0945 101.849C86.1928 101.957 86.248 102.103 86.248 102.255C86.248 102.408 86.1928 102.554 86.0945 102.662C85.9961 102.769 85.8628 102.83 85.7237 102.83Z" fill="white"/>
<path id="Vector_33" d="M88.7984 105.099H83.2091C83.0703 105.099 82.9372 105.038 82.8391 104.93C82.741 104.823 82.6859 104.677 82.6859 104.525C82.6859 104.373 82.741 104.227 82.8391 104.119C82.9372 104.011 83.0703 103.951 83.2091 103.95H88.7984C88.9372 103.951 89.0703 104.011 89.1684 104.119C89.2665 104.227 89.3216 104.373 89.3216 104.525C89.3216 104.677 89.2665 104.823 89.1684 104.93C89.0703 105.038 88.9372 105.099 88.7984 105.099Z" fill="white"/>
<path id="Vector_34" d="M53.5455 59.527H51.0309C50.892 59.5267 50.759 59.466 50.6609 59.3584C50.5628 59.2507 50.5077 59.1048 50.5077 58.9527C50.5077 58.8006 50.5628 58.6547 50.6609 58.547C50.759 58.4394 50.892 58.3787 51.0309 58.3784H53.5455C53.6844 58.3787 53.8175 58.4394 53.9155 58.547C54.0136 58.6547 54.0687 58.8006 54.0687 58.9527C54.0687 59.1048 54.0136 59.2507 53.9155 59.3584C53.8175 59.466 53.6844 59.5267 53.5455 59.527Z" fill="white"/>
<path id="Vector_35" d="M53.5455 61.5412H51.0309C50.892 61.5408 50.759 61.4802 50.6609 61.3725C50.5628 61.2649 50.5077 61.119 50.5077 60.9669C50.5077 60.8148 50.5628 60.6689 50.6609 60.5612C50.759 60.4535 50.892 60.3929 51.0309 60.3926H53.5455C53.6844 60.3929 53.8175 60.4535 53.9155 60.5612C54.0136 60.6689 54.0687 60.8148 54.0687 60.9669C54.0687 61.119 54.0136 61.2649 53.9155 61.3725C53.8175 61.4802 53.6844 61.5408 53.5455 61.5412Z" fill="white"/>
<path id="Vector_36" d="M53.5455 63.5551H51.0309C50.892 63.5548 50.759 63.4941 50.6609 63.3864C50.5628 63.2788 50.5077 63.1329 50.5077 62.9808C50.5077 62.8287 50.5628 62.6828 50.6609 62.5751C50.759 62.4675 50.892 62.4068 51.0309 62.4065H53.5455C53.6844 62.4068 53.8175 62.4675 53.9155 62.5751C54.0136 62.6828 54.0687 62.8287 54.0687 62.9808C54.0687 63.1329 54.0136 63.2788 53.9155 63.3864C53.8175 63.4941 53.6844 63.5548 53.5455 63.5551Z" fill="white"/>
<path id="Vector_37" d="M154.195 77.0047H130.828C130.201 77.0039 129.601 76.7311 129.158 76.2461C128.715 75.761 128.466 75.1034 128.466 74.4174V58.6532C128.466 57.9672 128.715 57.3096 129.158 56.8246C129.601 56.3395 130.201 56.0667 130.828 56.0659H154.195C154.821 56.0667 155.421 56.3395 155.864 56.8246C156.307 57.3096 156.556 57.9672 156.557 58.6532V74.4174C156.556 75.1034 156.307 75.761 155.864 76.2461C155.421 76.7311 154.821 77.0039 154.195 77.0047Z" fill="#E6E6E6"/>
<path id="Vector_38" d="M144.911 74.9742H132.47C131.884 74.9735 131.321 74.718 130.907 74.2637C130.492 73.8095 130.259 73.1935 130.258 72.5511V60.5195C130.259 59.8771 130.492 59.2612 130.907 58.8069C131.321 58.3527 131.884 58.0971 132.47 58.0964H152.552C153.139 58.0971 153.701 58.3527 154.116 58.8069C154.531 59.2612 154.764 59.8771 154.764 60.5195V64.181C154.761 67.0425 153.722 69.786 151.875 71.8094C150.028 73.8328 147.523 74.971 144.911 74.9742Z" fill="white"/>
<path id="Vector_39" d="M150.549 64.6847H134.473C134.334 64.6847 134.201 64.6242 134.103 64.5165C134.004 64.4088 133.949 64.2627 133.949 64.1104C133.949 63.9581 134.004 63.812 134.103 63.7043C134.201 63.5966 134.334 63.5361 134.473 63.5361H150.549C150.688 63.5361 150.821 63.5966 150.92 63.7043C151.018 63.812 151.073 63.9581 151.073 64.1104C151.073 64.2627 151.018 64.4088 150.92 64.5165C150.821 64.6242 150.688 64.6847 150.549 64.6847Z" fill="#3F7D9A"/>
<path id="Vector_40" d="M136.988 66.9538H134.473C134.335 66.9534 134.201 66.8928 134.103 66.7851C134.005 66.6775 133.95 66.5316 133.95 66.3795C133.95 66.2274 134.005 66.0815 134.103 65.9738C134.201 65.8661 134.335 65.8055 134.473 65.8052H136.988C137.127 65.8055 137.26 65.8661 137.358 65.9738C137.456 66.0815 137.511 66.2274 137.511 66.3795C137.511 66.5316 137.456 66.6775 137.358 66.7851C137.26 66.8928 137.127 66.9534 136.988 66.9538Z" fill="#3F7D9A"/>
<path id="Vector_41" d="M141.442 69.223H134.473C134.334 69.223 134.201 69.1625 134.103 69.0548C134.004 68.9471 133.949 68.8011 133.949 68.6488C133.949 68.4964 134.004 68.3504 134.103 68.2427C134.201 68.135 134.334 68.0745 134.473 68.0745H141.442C141.581 68.0745 141.714 68.135 141.812 68.2427C141.911 68.3504 141.966 68.4964 141.966 68.6488C141.966 68.8011 141.911 68.9471 141.812 69.0548C141.714 69.1625 141.581 69.223 141.442 69.223Z" fill="#3F7D9A"/>
<path id="Vector_42" d="M127.65 61.1662C130.38 61.1662 132.593 58.7421 132.593 55.7518C132.593 52.7615 130.38 50.3374 127.65 50.3374C124.92 50.3374 122.707 52.7615 122.707 55.7518C122.707 58.7421 124.92 61.1662 127.65 61.1662Z" fill="#3F3D56"/>
<path id="Vector_43" d="M71.6945 14.5642C72.0217 12.7449 72.6729 11.014 73.6108 9.47032C74.5487 7.92665 75.7551 6.60045 77.1609 5.56744C80.0002 3.48119 83.4798 2.71582 86.8342 3.4397C88.4952 3.79813 90.0754 4.51139 91.4847 5.53876C92.894 6.56613 94.1047 7.88749 95.0478 9.42739C95.9909 10.9673 96.6479 12.6956 96.9812 14.5136C97.3145 16.3316 97.3176 18.2037 96.9903 20.023L96.5392 19.9257C97.1765 16.3825 96.5027 12.7071 94.666 9.70802C92.8293 6.70897 89.9802 4.63195 86.7454 3.93387C83.5106 3.2358 80.1551 3.97386 77.4171 5.98568C74.6791 7.99751 72.7829 11.1183 72.1456 14.6615L71.6945 14.5642Z" fill="#3F3D56"/>
<path id="Vector_44" d="M76.5896 23.4727L69.2859 23.804C69.1299 23.8115 68.9744 23.7801 68.831 23.7123C68.6876 23.6445 68.5601 23.542 68.458 23.4126C68.3572 23.2864 68.2839 23.137 68.2434 22.9753C68.2029 22.8137 68.1963 22.6442 68.2242 22.4794C68.7847 19.1318 68.6214 15.6869 67.7473 12.4209C67.6798 12.1711 67.6935 11.9034 67.7861 11.6635C67.8786 11.4235 68.0443 11.2261 68.2548 11.105C71.2463 9.40254 74.0494 9.31622 76.5857 10.8481C76.7186 10.9272 76.8342 11.0371 76.9243 11.1702C77.0145 11.3032 77.0771 11.4562 77.1078 11.6185C77.7679 15.1824 77.9262 18.836 77.5771 22.4523C77.5529 22.7244 77.4396 22.9778 77.258 23.1653C77.0765 23.3529 76.839 23.4621 76.5896 23.4727Z" fill="#3F7D9A"/>
<path id="Vector_45" d="M76.2806 18.2365L70.6961 18.4898C70.6273 18.493 70.5585 18.4813 70.4939 18.4554C70.4292 18.4295 70.3698 18.3898 70.319 18.3388C70.2683 18.2877 70.2273 18.2261 70.1983 18.1577C70.1693 18.0892 70.153 18.0152 70.1501 17.9398C70.1473 17.8644 70.158 17.7891 70.1817 17.7183C70.2054 17.6475 70.2417 17.5824 70.2883 17.5269C70.335 17.4714 70.3912 17.4266 70.4537 17.3949C70.5163 17.3632 70.5839 17.3453 70.6527 17.3422L76.2372 17.0889C76.306 17.0857 76.3746 17.0975 76.4393 17.1235C76.5039 17.1494 76.5633 17.1891 76.6139 17.2401C76.6646 17.2912 76.7056 17.3527 76.7345 17.4211C76.7635 17.4896 76.7799 17.5636 76.7827 17.6389C76.7856 17.7143 76.7748 17.7895 76.7512 17.8603C76.7275 17.9311 76.6913 17.9961 76.6446 18.0516C76.598 18.1071 76.5418 18.152 76.4794 18.1837C76.4169 18.2154 76.3494 18.2333 76.2806 18.2365Z" fill="white"/>
<path id="Vector_46" d="M76.2044 16.2243L70.62 16.4776C70.481 16.4839 70.3455 16.4295 70.2432 16.3264C70.1409 16.2232 70.0802 16.0798 70.0744 15.9276C70.0687 15.7754 70.1183 15.627 70.2125 15.5149C70.3067 15.4028 70.4376 15.3363 70.5766 15.33L76.161 15.0767C76.3 15.0704 76.4355 15.1248 76.5378 15.2279C76.6401 15.3311 76.7008 15.4745 76.7066 15.6267C76.7123 15.7789 76.6627 15.9273 76.5685 16.0394C76.4743 16.1515 76.3434 16.218 76.2044 16.2243Z" fill="white"/>
<path id="Vector_47" d="M124.387 20.9388H101.02C100.394 20.938 99.7936 20.6652 99.3508 20.1802C98.908 19.6951 98.6589 19.0375 98.6582 18.3515V2.58728C98.6589 1.90133 98.908 1.2437 99.3508 0.758657C99.7936 0.273615 100.394 0.000777629 101.02 0H124.387C125.014 0.000774962 125.614 0.273611 126.057 0.758653C126.5 1.2437 126.749 1.90133 126.749 2.58728V18.3515C126.749 19.0375 126.5 19.6951 126.057 20.1802C125.614 20.6652 125.014 20.938 124.387 20.9388Z" fill="#E6E6E6"/>
<path id="Vector_48" d="M115.103 18.9083H102.663C102.076 18.9076 101.514 18.6521 101.099 18.1978C100.685 17.7435 100.451 17.1276 100.451 16.4852V4.45359C100.451 3.81115 100.685 3.19525 101.099 2.74099C101.514 2.28674 102.076 2.03123 102.663 2.03052H122.745C123.331 2.03123 123.894 2.28675 124.308 2.74101C124.723 3.19526 124.956 3.81117 124.957 4.45359V8.11505C124.954 10.9766 123.915 13.72 122.068 15.7435C120.22 17.7669 117.716 18.9051 115.103 18.9083Z" fill="white"/>
<path id="Vector_49" d="M120.742 8.61875H104.666C104.527 8.61875 104.394 8.55824 104.295 8.45055C104.197 8.34285 104.142 8.19679 104.142 8.04448C104.142 7.89218 104.197 7.74611 104.295 7.63841C104.394 7.53072 104.527 7.47021 104.666 7.47021H120.742C120.881 7.47021 121.014 7.53072 121.112 7.63841C121.211 7.74611 121.266 7.89218 121.266 8.04448C121.266 8.19679 121.211 8.34285 121.112 8.45055C121.014 8.55824 120.881 8.61875 120.742 8.61875Z" fill="#3F7D9A"/>
<path id="Vector_50" d="M107.181 10.8878H104.666C104.527 10.8875 104.394 10.8269 104.296 10.7192C104.198 10.6115 104.143 10.4657 104.143 10.3135C104.143 10.1614 104.198 10.0156 104.296 9.90789C104.394 9.80022 104.527 9.73958 104.666 9.73926H107.181C107.32 9.73958 107.453 9.80022 107.551 9.90789C107.649 10.0156 107.704 10.1614 107.704 10.3135C107.704 10.4657 107.649 10.6115 107.551 10.7192C107.453 10.8269 107.32 10.8875 107.181 10.8878Z" fill="#3F7D9A"/>
<path id="Vector_51" d="M111.634 13.1571H104.666C104.527 13.1571 104.394 13.0966 104.295 12.9889C104.197 12.8812 104.142 12.7351 104.142 12.5828C104.142 12.4305 104.197 12.2845 104.295 12.1768C104.394 12.0691 104.527 12.0085 104.666 12.0085H111.634C111.773 12.0089 111.906 12.0695 112.004 12.1772C112.103 12.2848 112.158 12.4307 112.158 12.5828C112.158 12.7349 112.103 12.8808 112.004 12.9885C111.906 13.0962 111.773 13.1568 111.634 13.1571Z" fill="#3F7D9A"/>
<path id="Vector_52" d="M101.435 23.6678C102.877 21.1282 102.166 17.7896 99.847 16.211C97.5284 14.6323 94.4805 15.4113 93.0393 17.9509C91.598 20.4906 92.3092 23.8291 94.6278 25.4077C96.9463 26.9864 99.9942 26.2074 101.435 23.6678Z" fill="#3F3D56"/>
<path id="Vector_53" d="M208.2 148H140.288C140.232 148 140.178 147.976 140.139 147.932C140.099 147.889 140.077 147.83 140.077 147.769C140.077 147.707 140.099 147.648 140.139 147.605C140.178 147.561 140.232 147.537 140.288 147.537H208.2C208.256 147.537 208.31 147.561 208.35 147.605C208.389 147.648 208.412 147.707 208.412 147.769C208.412 147.83 208.389 147.889 208.35 147.932C208.31 147.976 208.256 148 208.2 148Z" fill="#CCCCCC"/>
<path id="Vector_54" d="M31.3893 63.0481C29.3613 57.1757 29.546 50.6613 31.903 44.9381C34.2599 39.2149 38.5959 34.7517 43.9572 32.5303C49.3184 30.3089 55.2657 30.5113 60.4907 33.0929C65.7157 35.6746 69.7904 40.4241 71.8185 46.2965L71.3884 46.4747C70.4056 43.6289 68.9207 41.0229 67.0184 38.8056C65.1161 36.5883 62.8338 34.8032 60.3017 33.5521C57.7696 32.3009 55.0373 31.6084 52.2608 31.5139C49.4843 31.4194 46.718 31.9248 44.1199 33.0013C41.5218 34.0779 39.1426 35.7044 37.1184 37.788C35.0941 39.8717 33.4643 42.3716 32.3221 45.1452C31.1799 47.9187 30.5476 50.9115 30.4614 53.9527C30.3751 56.994 30.8365 60.024 31.8193 62.8699L31.3893 63.0481Z" fill="#3F3D56"/>
<path id="Vector_55" d="M50.2955 39.6H42.9856C42.8294 39.6003 42.6752 39.5619 42.5345 39.4877C42.3938 39.4135 42.2702 39.3053 42.1731 39.1713C42.0772 39.0407 42.0096 38.888 41.9752 38.7247C41.9409 38.5614 41.9407 38.3917 41.9748 38.2283C42.6668 34.8829 42.6277 31.4058 41.8606 28.0801C41.8062 27.8447 41.8229 27.5964 41.9081 27.3723C41.9934 27.1482 42.1426 26.9604 42.3335 26.837C44.9814 25.1487 47.8092 25.2002 50.7379 26.9906C50.8765 27.0734 50.9961 27.1898 51.0874 27.3309C51.1787 27.472 51.2395 27.6341 51.2649 27.8048C51.7862 31.3875 51.805 35.0364 51.3207 38.6252C51.2863 38.896 51.1634 39.144 50.975 39.3232C50.7865 39.5024 50.5451 39.6007 50.2955 39.6Z" fill="#3F7D9A"/>
<path id="Vector_56" d="M46.88 31.8334H44.3654C44.2265 31.8331 44.0934 31.7724 43.9953 31.6648C43.8973 31.5571 43.8422 31.4112 43.8422 31.2591C43.8422 31.107 43.8973 30.9611 43.9953 30.8534C44.0934 30.7458 44.2265 30.6851 44.3654 30.6848H46.88C47.0188 30.6851 47.1519 30.7458 47.25 30.8534C47.3481 30.9611 47.4032 31.107 47.4032 31.2591C47.4032 31.4112 47.3481 31.5571 47.25 31.6648C47.1519 31.7724 47.0188 31.8331 46.88 31.8334Z" fill="white"/>
<path id="Vector_57" d="M49.9546 34.1027H44.3654C44.2263 34.1027 44.093 34.0422 43.9946 33.9345C43.8963 33.8268 43.8411 33.6807 43.8411 33.5284C43.8411 33.3761 43.8963 33.23 43.9946 33.1223C44.093 33.0146 44.2263 32.9541 44.3654 32.9541H49.9546C50.0935 32.9544 50.2266 33.0151 50.3246 33.1227C50.4227 33.2304 50.4778 33.3763 50.4778 33.5284C50.4778 33.6805 50.4227 33.8264 50.3246 33.9341C50.2266 34.0417 50.0935 34.1024 49.9546 34.1027Z" fill="white"/>
<path id="Vector_58" d="M26.2439 62.731H2.8767C2.25046 62.7303 1.65007 62.4574 1.20725 61.9724C0.764438 61.4873 0.515355 60.8297 0.514648 60.1438V44.3795C0.515355 43.6936 0.764438 43.0359 1.20725 42.5509C1.65007 42.0658 2.25046 41.793 2.8767 41.7922H26.2439C26.8701 41.793 27.4705 42.0658 27.9133 42.5509C28.3561 43.0359 28.6052 43.6936 28.6059 44.3795V60.1438C28.6052 60.8297 28.3561 61.4874 27.9133 61.9724C27.4705 62.4574 26.8701 62.7303 26.2439 62.731Z" fill="#E6E6E6"/>
<path id="Vector_59" d="M16.9597 60.7005H4.51926C3.93275 60.6998 3.37045 60.4443 2.95571 59.99C2.54098 59.5358 2.30768 58.9199 2.30701 58.2774V46.2458C2.30768 45.6034 2.54098 44.9875 2.95571 44.5332C3.37045 44.079 3.93275 43.8235 4.51926 43.8228H24.6014C25.1879 43.8235 25.7501 44.079 26.1649 44.5332C26.5796 44.9875 26.8129 45.6034 26.8135 46.2458V49.9073C26.8105 52.7689 25.7714 55.5123 23.9241 57.5357C22.0768 59.5591 19.5722 60.6973 16.9597 60.7005Z" fill="white"/>
<path id="Vector_60" d="M22.598 50.411H6.52257C6.38352 50.411 6.25017 50.3505 6.15185 50.2428C6.05353 50.1351 5.99829 49.989 5.99829 49.8367C5.99829 49.6844 6.05353 49.5383 6.15185 49.4306C6.25017 49.323 6.38352 49.2625 6.52257 49.2625H22.598C22.7371 49.2625 22.8704 49.323 22.9687 49.4306C23.067 49.5383 23.1223 49.6844 23.1223 49.8367C23.1223 49.989 23.067 50.1351 22.9687 50.2428C22.8704 50.3505 22.7371 50.411 22.598 50.411Z" fill="#3F7D9A"/>
<path id="Vector_61" d="M9.03721 52.6801H6.52259C6.38373 52.6798 6.25065 52.6191 6.15256 52.5115C6.05448 52.4038 5.99939 52.2579 5.99939 52.1058C5.99939 51.9537 6.05448 51.8078 6.15256 51.7001C6.25065 51.5925 6.38373 51.5318 6.52259 51.5315H9.03721C9.17607 51.5318 9.30915 51.5925 9.40724 51.7001C9.50533 51.8078 9.56042 51.9537 9.56042 52.1058C9.56042 52.2579 9.50533 52.4038 9.40724 52.5115C9.30915 52.6191 9.17607 52.6798 9.03721 52.6801Z" fill="#3F7D9A"/>
<path id="Vector_62" d="M13.4909 54.9494H6.52259C6.38373 54.949 6.25065 54.8884 6.15256 54.7807C6.05448 54.6731 5.99939 54.5272 5.99939 54.3751C5.99939 54.223 6.05448 54.0771 6.15256 53.9694C6.25065 53.8617 6.38373 53.8011 6.52259 53.8008H13.4909C13.63 53.8008 13.7633 53.8613 13.8616 53.969C13.96 54.0767 14.0152 54.2228 14.0152 54.3751C14.0152 54.5274 13.96 54.6735 13.8616 54.7812C13.7633 54.8889 13.63 54.9494 13.4909 54.9494Z" fill="#3F7D9A"/>
<path id="Vector_63" d="M35.47 64.9564C36.9113 62.4167 36.2001 59.0782 33.8815 57.4996C31.563 55.9209 28.5151 56.6999 27.0738 59.2395C25.6326 61.7791 26.3438 65.1177 28.6623 66.6963C30.9809 68.275 34.0288 67.496 35.47 64.9564Z" fill="#3F3D56"/>
<path id="Vector_64" d="M75.3485 54.7056H68.0386C67.8825 54.706 67.7282 54.6676 67.5875 54.5933C67.4468 54.5191 67.3233 54.4109 67.2262 54.2769C67.1303 54.1464 67.0626 53.9937 67.0283 53.8304C66.9939 53.6671 66.9938 53.4973 67.0279 53.334C67.7186 49.9944 67.6809 46.5236 66.9177 43.2031C66.8635 42.9644 66.8819 42.713 66.97 42.4868C67.0581 42.2606 67.2111 42.0721 67.4059 41.9498C70.9569 39.7233 73.7687 39.7848 76.002 42.1378C76.1586 42.3056 76.2616 42.5242 76.296 42.7611C76.8386 46.3914 76.8648 50.0918 76.3737 53.7309C76.3393 54.0017 76.2165 54.2496 76.028 54.4288C75.8395 54.608 75.5981 54.7064 75.3485 54.7056Z" fill="#FF6584"/>
<path id="Vector_65" d="M72.3927 47.1908H69.8781C69.7392 47.1905 69.6061 47.1299 69.508 47.0222C69.4099 46.9145 69.3549 46.7686 69.3549 46.6165C69.3549 46.4644 69.4099 46.3185 69.508 46.2109C69.6061 46.1032 69.7392 46.0426 69.8781 46.0422H72.3927C72.5315 46.0426 72.6646 46.1032 72.7627 46.2109C72.8608 46.3185 72.9159 46.4644 72.9159 46.6165C72.9159 46.7686 72.8608 46.9145 72.7627 47.0222C72.6646 47.1299 72.5315 47.1905 72.3927 47.1908Z" fill="white"/>
<path id="Vector_66" d="M75.4673 49.4599H69.8781C69.739 49.4599 69.6056 49.3994 69.5073 49.2917C69.409 49.184 69.3538 49.0379 69.3538 48.8856C69.3538 48.7333 69.409 48.5872 69.5073 48.4795C69.6056 48.3718 69.739 48.3113 69.8781 48.3113H75.4673C75.6062 48.3116 75.7392 48.3722 75.8373 48.4799C75.9354 48.5876 75.9905 48.7335 75.9905 48.8856C75.9905 49.0377 75.9354 49.1836 75.8373 49.2912C75.7392 49.3989 75.6062 49.4595 75.4673 49.4599Z" fill="white"/>
</g>
<defs>
<clipPath id="clip0_49_119">
<rect width="207.897" height="148" fill="white" transform="translate(0.514648)"/>
</clipPath>
</defs>
</svg>
